<svg xmlns="http://www.w3.org/2000/svg" viewBox="0 0 900 300" width="900" height="300" shape-rendering="crispEdges">
  <rect x="0" y="0" width="900" height="300" rx="14" fill="#100e08"/>
  <rect x="6" y="6" width="888" height="288" rx="10" fill="none" stroke="#f8c000" stroke-width="3"/>
  <rect x="13" y="13" width="874" height="274" rx="7" fill="none" stroke="#f8c000" stroke-width="1.5" opacity="0.6"/>
  <rect x="243" y="154" width="12" height="12" fill="#7a5c00"/>
<rect x="243" y="193" width="12" height="12" fill="#7a5c00"/>
<rect x="126" y="154" width="12" height="12" fill="#7a5c00"/>
<rect x="139" y="141" width="12" height="12" fill="#7a5c00"/>
<rect x="126" y="193" width="12" height="12" fill="#7a5c00"/>
<rect x="269" y="193" width="12" height="12" fill="#7a5c00"/>
<rect x="139" y="180" width="12" height="12" fill="#7a5c00"/>
<rect x="204" y="128" width="12" height="12" fill="#7a5c00"/>
<rect x="191" y="102" width="12" height="12" fill="#7a5c00"/>
<rect x="152" y="193" width="12" height="12" fill="#7a5c00"/>
<rect x="191" y="141" width="12" height="12" fill="#7a5c00"/>
<rect x="217" y="180" width="12" height="12" fill="#7a5c00"/>
<rect x="230" y="167" width="12" height="12" fill="#7a5c00"/>
<rect x="217" y="141" width="12" height="12" fill="#7a5c00"/>
<rect x="100" y="180" width="12" height="12" fill="#7a5c00"/>
<rect x="113" y="167" width="12" height="12" fill="#7a5c00"/>
<rect x="256" y="167" width="12" height="12" fill="#7a5c00"/>
<rect x="165" y="128" width="12" height="12" fill="#7a5c00"/>
<rect x="178" y="115" width="12" height="12" fill="#7a5c00"/>
<rect x="178" y="193" width="12" height="12" fill="#7a5c00"/>
<rect x="269" y="180" width="12" height="12" fill="#7a5c00"/>
<rect x="139" y="167" width="12" height="12" fill="#7a5c00"/>
<rect x="243" y="180" width="12" height="12" fill="#7a5c00"/>
<rect x="152" y="180" width="12" height="12" fill="#7a5c00"/>
<rect x="126" y="180" width="12" height="12" fill="#7a5c00"/>
<rect x="152" y="141" width="12" height="12" fill="#7a5c00"/>
<rect x="191" y="128" width="12" height="12" fill="#7a5c00"/>
<rect x="204" y="115" width="12" height="12" fill="#7a5c00"/>
<rect x="204" y="193" width="12" height="12" fill="#7a5c00"/>
<rect x="230" y="154" width="12" height="12" fill="#7a5c00"/>
<rect x="217" y="128" width="12" height="12" fill="#7a5c00"/>
<rect x="87" y="193" width="12" height="12" fill="#7a5c00"/>
<rect x="217" y="167" width="12" height="12" fill="#7a5c00"/>
<rect x="230" y="193" width="12" height="12" fill="#7a5c00"/>
<rect x="113" y="193" width="12" height="12" fill="#7a5c00"/>
<rect x="256" y="193" width="12" height="12" fill="#7a5c00"/>
<rect x="165" y="115" width="12" height="12" fill="#7a5c00"/>
<rect x="178" y="102" width="12" height="12" fill="#7a5c00"/>
<rect x="282" y="193" width="12" height="12" fill="#7a5c00"/>
<rect x="178" y="141" width="12" height="12" fill="#7a5c00"/>
<rect x="165" y="193" width="12" height="12" fill="#7a5c00"/>
<rect x="243" y="167" width="12" height="12" fill="#7a5c00"/>
<rect x="139" y="193" width="12" height="12" fill="#7a5c00"/>
<rect x="126" y="167" width="12" height="12" fill="#7a5c00"/>
<rect x="152" y="128" width="12" height="12" fill="#7a5c00"/>
<rect x="139" y="154" width="12" height="12" fill="#7a5c00"/>
<rect x="152" y="167" width="12" height="12" fill="#7a5c00"/>
<rect x="204" y="141" width="12" height="12" fill="#7a5c00"/>
<rect x="191" y="115" width="12" height="12" fill="#7a5c00"/>
<rect x="191" y="193" width="12" height="12" fill="#7a5c00"/>
<rect x="204" y="180" width="12" height="12" fill="#7a5c00"/>
<rect x="230" y="141" width="12" height="12" fill="#7a5c00"/>
<rect x="217" y="193" width="12" height="12" fill="#7a5c00"/>
<rect x="230" y="180" width="12" height="12" fill="#7a5c00"/>
<rect x="100" y="193" width="12" height="12" fill="#7a5c00"/>
<rect x="113" y="180" width="12" height="12" fill="#7a5c00"/>
<rect x="256" y="180" width="12" height="12" fill="#7a5c00"/>
<rect x="178" y="128" width="12" height="12" fill="#7a5c00"/>
<rect x="165" y="180" width="12" height="12" fill="#7a5c00"/>
<rect x="165" y="141" width="12" height="12" fill="#7a5c00"/>
  <rect x="240" y="150" width="12" height="12" fill="#f8c000"/>
<rect x="240" y="189" width="12" height="12" fill="#f8c000"/>
<rect x="123" y="150" width="12" height="12" fill="#f8c000"/>
<rect x="136" y="137" width="12" height="12" fill="#f8c000"/>
<rect x="123" y="189" width="12" height="12" fill="#f8c000"/>
<rect x="266" y="189" width="12" height="12" fill="#f8c000"/>
<rect x="136" y="176" width="12" height="12" fill="#f8c000"/>
<rect x="201" y="124" width="12" height="12" fill="#f8c000"/>
<rect x="188" y="98" width="12" height="12" fill="#f8c000"/>
<rect x="149" y="189" width="12" height="12" fill="#f8c000"/>
<rect x="188" y="137" width="12" height="12" fill="#f8c000"/>
<rect x="214" y="176" width="12" height="12" fill="#f8c000"/>
<rect x="227" y="163" width="12" height="12" fill="#f8c000"/>
<rect x="214" y="137" width="12" height="12" fill="#f8c000"/>
<rect x="97" y="176" width="12" height="12" fill="#f8c000"/>
<rect x="110" y="163" width="12" height="12" fill="#f8c000"/>
<rect x="253" y="163" width="12" height="12" fill="#f8c000"/>
<rect x="162" y="124" width="12" height="12" fill="#f8c000"/>
<rect x="175" y="111" width="12" height="12" fill="#f8c000"/>
<rect x="175" y="189" width="12" height="12" fill="#f8c000"/>
<rect x="266" y="176" width="12" height="12" fill="#f8c000"/>
<rect x="136" y="163" width="12" height="12" fill="#f8c000"/>
<rect x="240" y="176" width="12" height="12" fill="#f8c000"/>
<rect x="149" y="176" width="12" height="12" fill="#f8c000"/>
<rect x="123" y="176" width="12" height="12" fill="#f8c000"/>
<rect x="149" y="137" width="12" height="12" fill="#f8c000"/>
<rect x="188" y="124" width="12" height="12" fill="#f8c000"/>
<rect x="201" y="111" width="12" height="12" fill="#f8c000"/>
<rect x="201" y="189" width="12" height="12" fill="#f8c000"/>
<rect x="227" y="150" width="12" height="12" fill="#f8c000"/>
<rect x="214" y="124" width="12" height="12" fill="#f8c000"/>
<rect x="84" y="189" width="12" height="12" fill="#f8c000"/>
<rect x="214" y="163" width="12" height="12" fill="#f8c000"/>
<rect x="227" y="189" width="12" height="12" fill="#f8c000"/>
<rect x="110" y="189" width="12" height="12" fill="#f8c000"/>
<rect x="253" y="189" width="12" height="12" fill="#f8c000"/>
<rect x="162" y="111" width="12" height="12" fill="#f8c000"/>
<rect x="175" y="98" width="12" height="12" fill="#f8c000"/>
<rect x="279" y="189" width="12" height="12" fill="#f8c000"/>
<rect x="175" y="137" width="12" height="12" fill="#f8c000"/>
<rect x="162" y="189" width="12" height="12" fill="#f8c000"/>
<rect x="240" y="163" width="12" height="12" fill="#f8c000"/>
<rect x="136" y="189" width="12" height="12" fill="#f8c000"/>
<rect x="123" y="163" width="12" height="12" fill="#f8c000"/>
<rect x="149" y="124" width="12" height="12" fill="#f8c000"/>
<rect x="136" y="150" width="12" height="12" fill="#f8c000"/>
<rect x="149" y="163" width="12" height="12" fill="#f8c000"/>
<rect x="201" y="137" width="12" height="12" fill="#f8c000"/>
<rect x="188" y="111" width="12" height="12" fill="#f8c000"/>
<rect x="188" y="189" width="12" height="12" fill="#f8c000"/>
<rect x="201" y="176" width="12" height="12" fill="#f8c000"/>
<rect x="227" y="137" width="12" height="12" fill="#f8c000"/>
<rect x="214" y="189" width="12" height="12" fill="#f8c000"/>
<rect x="227" y="176" width="12" height="12" fill="#f8c000"/>
<rect x="97" y="189" width="12" height="12" fill="#f8c000"/>
<rect x="110" y="176" width="12" height="12" fill="#f8c000"/>
<rect x="253" y="176" width="12" height="12" fill="#f8c000"/>
<rect x="175" y="124" width="12" height="12" fill="#f8c000"/>
<rect x="162" y="176" width="12" height="12" fill="#f8c000"/>
<rect x="162" y="137" width="12" height="12" fill="#f8c000"/>
  <text x="322" y="150" font-family="'Courier New',monospace" font-size="62" font-weight="bold" letter-spacing="4" fill="#7a5c00">ROM STUFFER</text>
  <text x="318" y="146" font-family="'Courier New',monospace" font-size="62" font-weight="bold" letter-spacing="4" fill="#f8c000">ROM STUFFER</text>
  <text x="322" y="184" font-family="'Courier New',monospace" font-size="16" font-weight="bold" letter-spacing="1" fill="#38c020">Cartridge ROM compressor for RetroArch handhelds</text>
  <text x="322" y="220" font-family="'Courier New',monospace" font-size="14" fill="#b8925a">It's dangerous to go alone!  Compress your cartridges first.</text>
</svg>
