<svg xmlns="http://www.w3.org/2000/svg" viewBox="0 0 900 300" width="900" height="300" shape-rendering="crispEdges">
  <rect x="0" y="0" width="900" height="300" rx="14" fill="#0e0c16"/>
  <rect x="6" y="6" width="888" height="288" rx="10" fill="none" stroke="#b388ff" stroke-width="3"/>
  <rect x="13" y="13" width="874" height="274" rx="7" fill="none" stroke="#b388ff" stroke-width="1.5" opacity="0.6"/>
  <rect x="68" y="99" width="207" height="102" rx="4" fill="none" stroke="#6a6a86" stroke-width="3"/><rect x="150" y="106" width="13" height="13" fill="#b83fcf"/><rect x="135" y="121" width="13" height="13" fill="#b83fcf"/><rect x="150" y="121" width="13" height="13" fill="#b83fcf"/><rect x="165" y="121" width="13" height="13" fill="#b83fcf"/><rect x="90" y="151" width="13" height="13" fill="#f08a1c"/><rect x="90" y="166" width="13" height="13" fill="#f08a1c"/><rect x="150" y="166" width="13" height="13" fill="#f0cf2a"/><rect x="165" y="166" width="13" height="13" fill="#f0cf2a"/><rect x="210" y="166" width="13" height="13" fill="#e94040"/><rect x="225" y="166" width="13" height="13" fill="#e94040"/><rect x="90" y="181" width="13" height="13" fill="#f08a1c"/><rect x="105" y="181" width="13" height="13" fill="#f08a1c"/><rect x="150" y="181" width="13" height="13" fill="#f0cf2a"/><rect x="165" y="181" width="13" height="13" fill="#f0cf2a"/><rect x="195" y="181" width="13" height="13" fill="#e94040"/><rect x="210" y="181" width="13" height="13" fill="#e94040"/>
  <text x="342" y="150" font-family="'Courier New',monospace" font-size="60" font-weight="bold" letter-spacing="4" fill="#4a3a6a">ROM STUFFER</text>
  <text x="338" y="146" font-family="'Courier New',monospace" font-size="60" font-weight="bold" letter-spacing="4" fill="#b388ff">ROM STUFFER</text>
  <text x="342" y="184" font-family="'Courier New',monospace" font-size="16" font-weight="bold" letter-spacing="1" fill="#29b6f6">Compress + de-duplicate cartridge ROMs for RetroArch</text>
  <text x="342" y="220" font-family="'Courier New',monospace" font-size="14" fill="#8a86a0">Pack them tight.  No wasted space.</text>
</svg>
