<svg xmlns="http://www.w3.org/2000/svg" viewBox="0 0 900 300" width="900" height="300" shape-rendering="crispEdges">
  <rect x="0" y="0" width="900" height="300" rx="14" fill="#120a10"/>
  <rect x="6" y="6" width="888" height="288" rx="10" fill="none" stroke="#f884b8" stroke-width="3"/>
  <rect x="13" y="13" width="874" height="274" rx="7" fill="none" stroke="#f884b8" stroke-width="1.5" opacity="0.6"/>
  <rect x="166" y="113" width="11" height="11" fill="#7a3a58"/>
<rect x="178" y="113" width="11" height="11" fill="#7a3a58"/>
<rect x="154" y="125" width="11" height="11" fill="#7a3a58"/>
<rect x="166" y="125" width="11" height="11" fill="#7a3a58"/>
<rect x="178" y="125" width="11" height="11" fill="#7a3a58"/>
<rect x="190" y="125" width="11" height="11" fill="#7a3a58"/>
<rect x="142" y="137" width="11" height="11" fill="#7a3a58"/>
<rect x="154" y="137" width="11" height="11" fill="#7a3a58"/>
<rect x="166" y="137" width="11" height="11" fill="#7a3a58"/>
<rect x="178" y="137" width="11" height="11" fill="#7a3a58"/>
<rect x="190" y="137" width="11" height="11" fill="#7a3a58"/>
<rect x="202" y="137" width="11" height="11" fill="#7a3a58"/>
<rect x="94" y="149" width="11" height="11" fill="#7a3a58"/>
<rect x="106" y="149" width="11" height="11" fill="#7a3a58"/>
<rect x="118" y="149" width="11" height="11" fill="#7a3a58"/>
<rect x="130" y="149" width="11" height="11" fill="#7a3a58"/>
<rect x="142" y="149" width="11" height="11" fill="#7a3a58"/>
<rect x="154" y="149" width="11" height="11" fill="#7a3a58"/>
<rect x="166" y="149" width="11" height="11" fill="#7a3a58"/>
<rect x="178" y="149" width="11" height="11" fill="#7a3a58"/>
<rect x="190" y="149" width="11" height="11" fill="#7a3a58"/>
<rect x="202" y="149" width="11" height="11" fill="#7a3a58"/>
<rect x="214" y="149" width="11" height="11" fill="#7a3a58"/>
<rect x="226" y="149" width="11" height="11" fill="#7a3a58"/>
<rect x="238" y="149" width="11" height="11" fill="#7a3a58"/>
<rect x="250" y="149" width="11" height="11" fill="#7a3a58"/>
<rect x="106" y="161" width="11" height="11" fill="#7a3a58"/>
<rect x="118" y="161" width="11" height="11" fill="#7a3a58"/>
<rect x="130" y="161" width="11" height="11" fill="#7a3a58"/>
<rect x="142" y="161" width="11" height="11" fill="#7a3a58"/>
<rect x="154" y="161" width="11" height="11" fill="#7a3a58"/>
<rect x="166" y="161" width="11" height="11" fill="#7a3a58"/>
<rect x="178" y="161" width="11" height="11" fill="#7a3a58"/>
<rect x="190" y="161" width="11" height="11" fill="#7a3a58"/>
<rect x="202" y="161" width="11" height="11" fill="#7a3a58"/>
<rect x="214" y="161" width="11" height="11" fill="#7a3a58"/>
<rect x="226" y="161" width="11" height="11" fill="#7a3a58"/>
<rect x="238" y="161" width="11" height="11" fill="#7a3a58"/>
<rect x="118" y="173" width="11" height="11" fill="#7a3a58"/>
<rect x="130" y="173" width="11" height="11" fill="#7a3a58"/>
<rect x="142" y="173" width="11" height="11" fill="#7a3a58"/>
<rect x="154" y="173" width="11" height="11" fill="#7a3a58"/>
<rect x="166" y="173" width="11" height="11" fill="#7a3a58"/>
<rect x="178" y="173" width="11" height="11" fill="#7a3a58"/>
<rect x="190" y="173" width="11" height="11" fill="#7a3a58"/>
<rect x="202" y="173" width="11" height="11" fill="#7a3a58"/>
<rect x="214" y="173" width="11" height="11" fill="#7a3a58"/>
<rect x="226" y="173" width="11" height="11" fill="#7a3a58"/>
<rect x="118" y="185" width="11" height="11" fill="#7a3a58"/>
<rect x="130" y="185" width="11" height="11" fill="#7a3a58"/>
<rect x="142" y="185" width="11" height="11" fill="#7a3a58"/>
<rect x="154" y="185" width="11" height="11" fill="#7a3a58"/>
<rect x="190" y="185" width="11" height="11" fill="#7a3a58"/>
<rect x="202" y="185" width="11" height="11" fill="#7a3a58"/>
<rect x="214" y="185" width="11" height="11" fill="#7a3a58"/>
<rect x="226" y="185" width="11" height="11" fill="#7a3a58"/>
  <rect x="162" y="108" width="11" height="11" fill="#f884b8"/>
<rect x="174" y="108" width="11" height="11" fill="#f884b8"/>
<rect x="150" y="120" width="11" height="11" fill="#f884b8"/>
<rect x="162" y="120" width="11" height="11" fill="#f884b8"/>
<rect x="174" y="120" width="11" height="11" fill="#f884b8"/>
<rect x="186" y="120" width="11" height="11" fill="#f884b8"/>
<rect x="138" y="132" width="11" height="11" fill="#f884b8"/>
<rect x="150" y="132" width="11" height="11" fill="#f884b8"/>
<rect x="162" y="132" width="11" height="11" fill="#f884b8"/>
<rect x="174" y="132" width="11" height="11" fill="#f884b8"/>
<rect x="186" y="132" width="11" height="11" fill="#f884b8"/>
<rect x="198" y="132" width="11" height="11" fill="#f884b8"/>
<rect x="90" y="144" width="11" height="11" fill="#f884b8"/>
<rect x="102" y="144" width="11" height="11" fill="#f884b8"/>
<rect x="114" y="144" width="11" height="11" fill="#f884b8"/>
<rect x="126" y="144" width="11" height="11" fill="#f884b8"/>
<rect x="138" y="144" width="11" height="11" fill="#f884b8"/>
<rect x="150" y="144" width="11" height="11" fill="#f884b8"/>
<rect x="162" y="144" width="11" height="11" fill="#f884b8"/>
<rect x="174" y="144" width="11" height="11" fill="#f884b8"/>
<rect x="186" y="144" width="11" height="11" fill="#f884b8"/>
<rect x="198" y="144" width="11" height="11" fill="#f884b8"/>
<rect x="210" y="144" width="11" height="11" fill="#f884b8"/>
<rect x="222" y="144" width="11" height="11" fill="#f884b8"/>
<rect x="234" y="144" width="11" height="11" fill="#f884b8"/>
<rect x="246" y="144" width="11" height="11" fill="#f884b8"/>
<rect x="102" y="156" width="11" height="11" fill="#f884b8"/>
<rect x="114" y="156" width="11" height="11" fill="#f884b8"/>
<rect x="126" y="156" width="11" height="11" fill="#f884b8"/>
<rect x="138" y="156" width="11" height="11" fill="#f884b8"/>
<rect x="150" y="156" width="11" height="11" fill="#f884b8"/>
<rect x="162" y="156" width="11" height="11" fill="#f884b8"/>
<rect x="174" y="156" width="11" height="11" fill="#f884b8"/>
<rect x="186" y="156" width="11" height="11" fill="#f884b8"/>
<rect x="198" y="156" width="11" height="11" fill="#f884b8"/>
<rect x="210" y="156" width="11" height="11" fill="#f884b8"/>
<rect x="222" y="156" width="11" height="11" fill="#f884b8"/>
<rect x="234" y="156" width="11" height="11" fill="#f884b8"/>
<rect x="114" y="168" width="11" height="11" fill="#f884b8"/>
<rect x="126" y="168" width="11" height="11" fill="#f884b8"/>
<rect x="138" y="168" width="11" height="11" fill="#f884b8"/>
<rect x="150" y="168" width="11" height="11" fill="#f884b8"/>
<rect x="162" y="168" width="11" height="11" fill="#f884b8"/>
<rect x="174" y="168" width="11" height="11" fill="#f884b8"/>
<rect x="186" y="168" width="11" height="11" fill="#f884b8"/>
<rect x="198" y="168" width="11" height="11" fill="#f884b8"/>
<rect x="210" y="168" width="11" height="11" fill="#f884b8"/>
<rect x="222" y="168" width="11" height="11" fill="#f884b8"/>
<rect x="114" y="180" width="11" height="11" fill="#f884b8"/>
<rect x="126" y="180" width="11" height="11" fill="#f884b8"/>
<rect x="138" y="180" width="11" height="11" fill="#f884b8"/>
<rect x="150" y="180" width="11" height="11" fill="#f884b8"/>
<rect x="186" y="180" width="11" height="11" fill="#f884b8"/>
<rect x="198" y="180" width="11" height="11" fill="#f884b8"/>
<rect x="210" y="180" width="11" height="11" fill="#f884b8"/>
<rect x="222" y="180" width="11" height="11" fill="#f884b8"/>
  <text x="322" y="150" font-family="'Courier New',monospace" font-size="62" font-weight="bold" letter-spacing="4" fill="#7a3a58">ROM STUFFER</text>
  <text x="318" y="146" font-family="'Courier New',monospace" font-size="62" font-weight="bold" letter-spacing="4" fill="#f884b8">ROM STUFFER</text>
  <text x="322" y="184" font-family="'Courier New',monospace" font-size="16" font-weight="bold" letter-spacing="1" fill="#7fd0f8">Compress + de-duplicate cartridge ROMs for RetroArch</text>
  <text x="322" y="220" font-family="'Courier New',monospace" font-size="14" fill="#b98aa0">Inhale the clutter.  Stuff your cartridges in.</text>
</svg>
