<svg xmlns="http://www.w3.org/2000/svg" viewBox="0 0 640 34" width="640" height="34" shape-rendering="crispEdges">
  <rect x="20" y="16" width="8" height="3" fill="#f8c000" opacity="0.7"/><rect x="36" y="16" width="8" height="3" fill="#f8c000" opacity="0.7"/><rect x="52" y="16" width="8" height="3" fill="#f8c000" opacity="0.7"/><rect x="68" y="16" width="8" height="3" fill="#f8c000" opacity="0.7"/><rect x="84" y="16" width="8" height="3" fill="#f8c000" opacity="0.7"/><rect x="100" y="16" width="8" height="3" fill="#f8c000" opacity="0.7"/><rect x="116" y="16" width="8" height="3" fill="#f8c000" opacity="0.7"/><rect x="132" y="16" width="8" height="3" fill="#f8c000" opacity="0.7"/><rect x="148" y="16" width="8" height="3" fill="#f8c000" opacity="0.7"/><rect x="164" y="16" width="8" height="3" fill="#f8c000" opacity="0.7"/><rect x="180" y="16" width="8" height="3" fill="#f8c000" opacity="0.7"/><rect x="196" y="16" width="8" height="3" fill="#f8c000" opacity="0.7"/><rect x="212" y="16" width="8" height="3" fill="#f8c000" opacity="0.7"/><rect x="228" y="16" width="8" height="3" fill="#f8c000" opacity="0.7"/><rect x="244" y="16" width="8" height="3" fill="#f8c000" opacity="0.7"/><rect x="260" y="16" width="8" height="3" fill="#f8c000" opacity="0.7"/><rect x="276" y="16" width="8" height="3" fill="#f8c000" opacity="0.7"/><rect x="358" y="16" width="8" height="3" fill="#f8c000" opacity="0.7"/><rect x="374" y="16" width="8" height="3" fill="#f8c000" opacity="0.7"/><rect x="390" y="16" width="8" height="3" fill="#f8c000" opacity="0.7"/><rect x="406" y="16" width="8" height="3" fill="#f8c000" opacity="0.7"/><rect x="422" y="16" width="8" height="3" fill="#f8c000" opacity="0.7"/><rect x="438" y="16" width="8" height="3" fill="#f8c000" opacity="0.7"/><rect x="454" y="16" width="8" height="3" fill="#f8c000" opacity="0.7"/><rect x="470" y="16" width="8" height="3" fill="#f8c000" opacity="0.7"/><rect x="486" y="16" width="8" height="3" fill="#f8c000" opacity="0.7"/><rect x="502" y="16" width="8" height="3" fill="#f8c000" opacity="0.7"/><rect x="518" y="16" width="8" height="3" fill="#f8c000" opacity="0.7"/><rect x="534" y="16" width="8" height="3" fill="#f8c000" opacity="0.7"/><rect x="550" y="16" width="8" height="3" fill="#f8c000" opacity="0.7"/><rect x="566" y="16" width="8" height="3" fill="#f8c000" opacity="0.7"/><rect x="582" y="16" width="8" height="3" fill="#f8c000" opacity="0.7"/><rect x="598" y="16" width="8" height="3" fill="#f8c000" opacity="0.7"/><rect x="614" y="16" width="8" height="3" fill="#f8c000" opacity="0.7"/>
  <rect x="302" y="23" width="5" height="5" fill="#f8c000"/>
<rect x="332" y="17" width="5" height="5" fill="#f8c000"/>
<rect x="320" y="5" width="5" height="5" fill="#f8c000"/>
<rect x="302" y="17" width="5" height="5" fill="#f8c000"/>
<rect x="308" y="11" width="5" height="5" fill="#f8c000"/>
<rect x="320" y="23" width="5" height="5" fill="#f8c000"/>
<rect x="314" y="11" width="5" height="5" fill="#f8c000"/>
<rect x="296" y="23" width="5" height="5" fill="#f8c000"/>
<rect x="326" y="11" width="5" height="5" fill="#f8c000"/>
<rect x="314" y="5" width="5" height="5" fill="#f8c000"/>
<rect x="308" y="23" width="5" height="5" fill="#f8c000"/>
<rect x="338" y="23" width="5" height="5" fill="#f8c000"/>
<rect x="314" y="23" width="5" height="5" fill="#f8c000"/>
<rect x="308" y="17" width="5" height="5" fill="#f8c000"/>
<rect x="326" y="23" width="5" height="5" fill="#f8c000"/>
<rect x="332" y="23" width="5" height="5" fill="#f8c000"/>
<rect x="320" y="11" width="5" height="5" fill="#f8c000"/>
<rect x="326" y="17" width="5" height="5" fill="#f8c000"/>
</svg>
