<svg xmlns="http://www.w3.org/2000/svg" viewBox="0 0 640 34" width="640" height="34" shape-rendering="crispEdges">
  <rect x="22.0" y="11.0" width="5" height="5" rx="1" fill="#b83fcf"/><rect x="16.0" y="17.0" width="5" height="5" rx="1" fill="#b83fcf"/><rect x="22.0" y="17.0" width="5" height="5" rx="1" fill="#b83fcf"/><rect x="28.0" y="17.0" width="5" height="5" rx="1" fill="#b83fcf"/><rect x="46.0" y="14.0" width="5" height="5" rx="1" fill="#29b6f6"/><rect x="52.0" y="14.0" width="5" height="5" rx="1" fill="#29b6f6"/><rect x="58.0" y="14.0" width="5" height="5" rx="1" fill="#29b6f6"/><rect x="64.0" y="14.0" width="5" height="5" rx="1" fill="#29b6f6"/><rect x="82.0" y="11.0" width="5" height="5" rx="1" fill="#f0cf2a"/><rect x="88.0" y="11.0" width="5" height="5" rx="1" fill="#f0cf2a"/><rect x="82.0" y="17.0" width="5" height="5" rx="1" fill="#f0cf2a"/><rect x="88.0" y="17.0" width="5" height="5" rx="1" fill="#f0cf2a"/><rect x="112.0" y="11.0" width="5" height="5" rx="1" fill="#3fcf6a"/><rect x="118.0" y="11.0" width="5" height="5" rx="1" fill="#3fcf6a"/><rect x="106.0" y="17.0" width="5" height="5" rx="1" fill="#3fcf6a"/><rect x="112.0" y="17.0" width="5" height="5" rx="1" fill="#3fcf6a"/><rect x="136.0" y="8.0" width="5" height="5" rx="1" fill="#f08a1c"/><rect x="136.0" y="14.0" width="5" height="5" rx="1" fill="#f08a1c"/><rect x="136.0" y="20.0" width="5" height="5" rx="1" fill="#f08a1c"/><rect x="142.0" y="20.0" width="5" height="5" rx="1" fill="#f08a1c"/><rect x="160.0" y="11.0" width="5" height="5" rx="1" fill="#e94040"/><rect x="166.0" y="11.0" width="5" height="5" rx="1" fill="#e94040"/><rect x="166.0" y="17.0" width="5" height="5" rx="1" fill="#e94040"/><rect x="172.0" y="17.0" width="5" height="5" rx="1" fill="#e94040"/><rect x="190.0" y="11.0" width="5" height="5" rx="1" fill="#3f6cff"/><rect x="196.0" y="11.0" width="5" height="5" rx="1" fill="#3f6cff"/><rect x="202.0" y="11.0" width="5" height="5" rx="1" fill="#3f6cff"/><rect x="202.0" y="17.0" width="5" height="5" rx="1" fill="#3f6cff"/><rect x="220.0" y="8.0" width="5" height="5" rx="1" fill="#b83fcf"/><rect x="220.0" y="14.0" width="5" height="5" rx="1" fill="#b83fcf"/><rect x="220.0" y="20.0" width="5" height="5" rx="1" fill="#b83fcf"/><rect x="226.0" y="14.0" width="5" height="5" rx="1" fill="#b83fcf"/><rect x="244.0" y="5.0" width="5" height="5" rx="1" fill="#29b6f6"/><rect x="244.0" y="11.0" width="5" height="5" rx="1" fill="#29b6f6"/><rect x="244.0" y="17.0" width="5" height="5" rx="1" fill="#29b6f6"/><rect x="244.0" y="23.0" width="5" height="5" rx="1" fill="#29b6f6"/><rect x="262.0" y="11.0" width="5" height="5" rx="1" fill="#f08a1c"/><rect x="268.0" y="11.0" width="5" height="5" rx="1" fill="#f08a1c"/><rect x="274.0" y="11.0" width="5" height="5" rx="1" fill="#f08a1c"/><rect x="262.0" y="17.0" width="5" height="5" rx="1" fill="#f08a1c"/><rect x="298.0" y="8.0" width="5" height="5" rx="1" fill="#3f6cff"/><rect x="298.0" y="14.0" width="5" height="5" rx="1" fill="#3f6cff"/><rect x="292.0" y="20.0" width="5" height="5" rx="1" fill="#3f6cff"/><rect x="298.0" y="20.0" width="5" height="5" rx="1" fill="#3f6cff"/><rect x="316.0" y="11.0" width="5" height="5" rx="1" fill="#b83fcf"/><rect x="322.0" y="11.0" width="5" height="5" rx="1" fill="#b83fcf"/><rect x="328.0" y="11.0" width="5" height="5" rx="1" fill="#b83fcf"/><rect x="322.0" y="17.0" width="5" height="5" rx="1" fill="#b83fcf"/><rect x="352.0" y="11.0" width="5" height="5" rx="1" fill="#b83fcf"/><rect x="346.0" y="17.0" width="5" height="5" rx="1" fill="#b83fcf"/><rect x="352.0" y="17.0" width="5" height="5" rx="1" fill="#b83fcf"/><rect x="358.0" y="17.0" width="5" height="5" rx="1" fill="#b83fcf"/><rect x="376.0" y="14.0" width="5" height="5" rx="1" fill="#29b6f6"/><rect x="382.0" y="14.0" width="5" height="5" rx="1" fill="#29b6f6"/><rect x="388.0" y="14.0" width="5" height="5" rx="1" fill="#29b6f6"/><rect x="394.0" y="14.0" width="5" height="5" rx="1" fill="#29b6f6"/><rect x="412.0" y="11.0" width="5" height="5" rx="1" fill="#f0cf2a"/><rect x="418.0" y="11.0" width="5" height="5" rx="1" fill="#f0cf2a"/><rect x="412.0" y="17.0" width="5" height="5" rx="1" fill="#f0cf2a"/><rect x="418.0" y="17.0" width="5" height="5" rx="1" fill="#f0cf2a"/><rect x="442.0" y="11.0" width="5" height="5" rx="1" fill="#3fcf6a"/><rect x="448.0" y="11.0" width="5" height="5" rx="1" fill="#3fcf6a"/><rect x="436.0" y="17.0" width="5" height="5" rx="1" fill="#3fcf6a"/><rect x="442.0" y="17.0" width="5" height="5" rx="1" fill="#3fcf6a"/><rect x="466.0" y="8.0" width="5" height="5" rx="1" fill="#f08a1c"/><rect x="466.0" y="14.0" width="5" height="5" rx="1" fill="#f08a1c"/><rect x="466.0" y="20.0" width="5" height="5" rx="1" fill="#f08a1c"/><rect x="472.0" y="20.0" width="5" height="5" rx="1" fill="#f08a1c"/><rect x="490.0" y="11.0" width="5" height="5" rx="1" fill="#e94040"/><rect x="496.0" y="11.0" width="5" height="5" rx="1" fill="#e94040"/><rect x="496.0" y="17.0" width="5" height="5" rx="1" fill="#e94040"/><rect x="502.0" y="17.0" width="5" height="5" rx="1" fill="#e94040"/><rect x="520.0" y="11.0" width="5" height="5" rx="1" fill="#3f6cff"/><rect x="526.0" y="11.0" width="5" height="5" rx="1" fill="#3f6cff"/><rect x="532.0" y="11.0" width="5" height="5" rx="1" fill="#3f6cff"/><rect x="532.0" y="17.0" width="5" height="5" rx="1" fill="#3f6cff"/><rect x="550.0" y="8.0" width="5" height="5" rx="1" fill="#b83fcf"/><rect x="550.0" y="14.0" width="5" height="5" rx="1" fill="#b83fcf"/><rect x="550.0" y="20.0" width="5" height="5" rx="1" fill="#b83fcf"/><rect x="556.0" y="14.0" width="5" height="5" rx="1" fill="#b83fcf"/><rect x="574.0" y="5.0" width="5" height="5" rx="1" fill="#29b6f6"/><rect x="574.0" y="11.0" width="5" height="5" rx="1" fill="#29b6f6"/><rect x="574.0" y="17.0" width="5" height="5" rx="1" fill="#29b6f6"/><rect x="574.0" y="23.0" width="5" height="5" rx="1" fill="#29b6f6"/><rect x="592.0" y="11.0" width="5" height="5" rx="1" fill="#f08a1c"/><rect x="598.0" y="11.0" width="5" height="5" rx="1" fill="#f08a1c"/><rect x="604.0" y="11.0" width="5" height="5" rx="1" fill="#f08a1c"/><rect x="592.0" y="17.0" width="5" height="5" rx="1" fill="#f08a1c"/>
</svg>
